<mxfile host="app.diagrams.net" agent="Mozilla/5.0 (Windows NT 10.0; Win64; x64) AppleWebKit/537.36 (KHTML, like Gecko) Chrome/135.0.0.0 Safari/537.36 Edg/135.0.0.0" version="26.2.8">
  <diagram name="Page-1" id="2YBvvXClWsGukQMizWep">
    <mxGraphModel dx="1724" dy="1104" grid="1" gridSize="10" guides="1" tooltips="1" connect="1" arrows="1" fold="1" page="1" pageScale="1" pageWidth="850" pageHeight="1100" math="0" shadow="0">
      <root>
        <mxCell id="0" />
        <mxCell id="1" parent="0" />
        <mxCell id="CESZngJtCbdqiEpLdhRZ-2" value="" style="shape=umlLifeline;perimeter=lifelinePerimeter;whiteSpace=wrap;html=1;container=1;dropTarget=0;collapsible=0;recursiveResize=0;outlineConnect=0;portConstraint=eastwest;newEdgeStyle={&quot;curved&quot;:0,&quot;rounded&quot;:0};participant=umlActor;" vertex="1" parent="1">
          <mxGeometry x="90" y="40" width="20" height="760" as="geometry" />
        </mxCell>
        <mxCell id="CESZngJtCbdqiEpLdhRZ-50" value="" style="html=1;points=[[0,0,0,0,5],[0,1,0,0,-5],[1,0,0,0,5],[1,1,0,0,-5]];perimeter=orthogonalPerimeter;outlineConnect=0;targetShapes=umlLifeline;portConstraint=eastwest;newEdgeStyle={&quot;curved&quot;:0,&quot;rounded&quot;:0};" vertex="1" parent="CESZngJtCbdqiEpLdhRZ-2">
          <mxGeometry x="5" y="80" width="10" height="640" as="geometry" />
        </mxCell>
        <mxCell id="CESZngJtCbdqiEpLdhRZ-4" value="&lt;span style=&quot;font-weight: 400;&quot;&gt;创建者&lt;/span&gt;" style="text;align=center;fontStyle=1;verticalAlign=middle;spacingLeft=3;spacingRight=3;strokeColor=none;rotatable=0;points=[[0,0.5],[1,0.5]];portConstraint=eastwest;html=1;" vertex="1" parent="1">
          <mxGeometry x="60" y="20" width="80" height="26" as="geometry" />
        </mxCell>
        <mxCell id="CESZngJtCbdqiEpLdhRZ-5" value="PostActivity" style="shape=umlLifeline;perimeter=lifelinePerimeter;whiteSpace=wrap;html=1;container=1;dropTarget=0;collapsible=0;recursiveResize=0;outlineConnect=0;portConstraint=eastwest;newEdgeStyle={&quot;curved&quot;:0,&quot;rounded&quot;:0};" vertex="1" parent="1">
          <mxGeometry x="200" y="40" width="120" height="760" as="geometry" />
        </mxCell>
        <mxCell id="CESZngJtCbdqiEpLdhRZ-51" value="" style="html=1;points=[[0,0,0,0,5],[0,1,0,0,-5],[1,0,0,0,5],[1,1,0,0,-5]];perimeter=orthogonalPerimeter;outlineConnect=0;targetShapes=umlLifeline;portConstraint=eastwest;newEdgeStyle={&quot;curved&quot;:0,&quot;rounded&quot;:0};" vertex="1" parent="CESZngJtCbdqiEpLdhRZ-5">
          <mxGeometry x="55" y="120" width="10" height="560" as="geometry" />
        </mxCell>
        <mxCell id="CESZngJtCbdqiEpLdhRZ-61" value="设置活动信息" style="html=1;align=left;spacingLeft=2;endArrow=block;rounded=0;edgeStyle=orthogonalEdgeStyle;curved=0;rounded=0;" edge="1" parent="CESZngJtCbdqiEpLdhRZ-5">
          <mxGeometry relative="1" as="geometry">
            <mxPoint x="65.00000000000023" y="130" as="sourcePoint" />
            <Array as="points">
              <mxPoint x="95" y="130" />
              <mxPoint x="95" y="160" />
            </Array>
            <mxPoint x="65.00000000000023" y="160" as="targetPoint" />
          </mxGeometry>
        </mxCell>
        <mxCell id="CESZngJtCbdqiEpLdhRZ-7" value="ApiRequest" style="shape=umlLifeline;perimeter=lifelinePerimeter;whiteSpace=wrap;html=1;container=1;dropTarget=0;collapsible=0;recursiveResize=0;outlineConnect=0;portConstraint=eastwest;newEdgeStyle={&quot;curved&quot;:0,&quot;rounded&quot;:0};" vertex="1" parent="1">
          <mxGeometry x="360" y="40" width="110" height="760" as="geometry" />
        </mxCell>
        <mxCell id="CESZngJtCbdqiEpLdhRZ-54" value="" style="html=1;points=[[0,0,0,0,5],[0,1,0,0,-5],[1,0,0,0,5],[1,1,0,0,-5]];perimeter=orthogonalPerimeter;outlineConnect=0;targetShapes=umlLifeline;portConstraint=eastwest;newEdgeStyle={&quot;curved&quot;:0,&quot;rounded&quot;:0};" vertex="1" parent="CESZngJtCbdqiEpLdhRZ-7">
          <mxGeometry x="50" y="205" width="10" height="435" as="geometry" />
        </mxCell>
        <mxCell id="CESZngJtCbdqiEpLdhRZ-16" value="ActivityController" style="shape=umlLifeline;perimeter=lifelinePerimeter;whiteSpace=wrap;html=1;container=1;dropTarget=0;collapsible=0;recursiveResize=0;outlineConnect=0;portConstraint=eastwest;newEdgeStyle={&quot;curved&quot;:0,&quot;rounded&quot;:0};" vertex="1" parent="1">
          <mxGeometry x="520" y="40" width="120" height="760" as="geometry" />
        </mxCell>
        <mxCell id="CESZngJtCbdqiEpLdhRZ-57" value="" style="html=1;points=[[0,0,0,0,5],[0,1,0,0,-5],[1,0,0,0,5],[1,1,0,0,-5]];perimeter=orthogonalPerimeter;outlineConnect=0;targetShapes=umlLifeline;portConstraint=eastwest;newEdgeStyle={&quot;curved&quot;:0,&quot;rounded&quot;:0};" vertex="1" parent="CESZngJtCbdqiEpLdhRZ-16">
          <mxGeometry x="55" y="240" width="10" height="360" as="geometry" />
        </mxCell>
        <mxCell id="CESZngJtCbdqiEpLdhRZ-70" value="检查登录信息" style="html=1;align=left;spacingLeft=2;endArrow=block;rounded=0;edgeStyle=orthogonalEdgeStyle;curved=0;rounded=0;" edge="1" parent="CESZngJtCbdqiEpLdhRZ-16" source="CESZngJtCbdqiEpLdhRZ-57" target="CESZngJtCbdqiEpLdhRZ-57">
          <mxGeometry relative="1" as="geometry">
            <mxPoint x="70.00000000000023" y="250" as="sourcePoint" />
            <Array as="points">
              <mxPoint x="120" y="250" />
              <mxPoint x="120" y="280" />
            </Array>
            <mxPoint x="70.00000000000023" y="280" as="targetPoint" />
          </mxGeometry>
        </mxCell>
        <mxCell id="CESZngJtCbdqiEpLdhRZ-71" value="检查活动信息" style="html=1;align=left;spacingLeft=2;endArrow=block;rounded=0;edgeStyle=orthogonalEdgeStyle;curved=0;rounded=0;" edge="1" parent="CESZngJtCbdqiEpLdhRZ-16" source="CESZngJtCbdqiEpLdhRZ-57" target="CESZngJtCbdqiEpLdhRZ-57">
          <mxGeometry relative="1" as="geometry">
            <mxPoint x="70" y="300" as="sourcePoint" />
            <Array as="points">
              <mxPoint x="120" y="300" />
              <mxPoint x="120" y="330" />
            </Array>
            <mxPoint x="70" y="330" as="targetPoint" />
          </mxGeometry>
        </mxCell>
        <mxCell id="CESZngJtCbdqiEpLdhRZ-26" value="Activity" style="shape=umlLifeline;perimeter=lifelinePerimeter;whiteSpace=wrap;html=1;container=1;dropTarget=0;collapsible=0;recursiveResize=0;outlineConnect=0;portConstraint=eastwest;newEdgeStyle={&quot;curved&quot;:0,&quot;rounded&quot;:0};" vertex="1" parent="1">
          <mxGeometry x="680" y="80" width="120" height="720" as="geometry" />
        </mxCell>
        <mxCell id="CESZngJtCbdqiEpLdhRZ-63" value="" style="html=1;points=[[0,0,0,0,5],[0,1,0,0,-5],[1,0,0,0,5],[1,1,0,0,-5]];perimeter=orthogonalPerimeter;outlineConnect=0;targetShapes=umlLifeline;portConstraint=eastwest;newEdgeStyle={&quot;curved&quot;:0,&quot;rounded&quot;:0};" vertex="1" parent="CESZngJtCbdqiEpLdhRZ-26">
          <mxGeometry x="55" y="320" width="10" height="80" as="geometry" />
        </mxCell>
        <mxCell id="CESZngJtCbdqiEpLdhRZ-29" value="ActivityTable" style="shape=umlLifeline;perimeter=lifelinePerimeter;whiteSpace=wrap;html=1;container=1;dropTarget=0;collapsible=0;recursiveResize=0;outlineConnect=0;portConstraint=eastwest;newEdgeStyle={&quot;curved&quot;:0,&quot;rounded&quot;:0};" vertex="1" parent="1">
          <mxGeometry x="840" y="40" width="120" height="760" as="geometry" />
        </mxCell>
        <mxCell id="CESZngJtCbdqiEpLdhRZ-66" value="" style="html=1;points=[[0,0,0,0,5],[0,1,0,0,-5],[1,0,0,0,5],[1,1,0,0,-5]];perimeter=orthogonalPerimeter;outlineConnect=0;targetShapes=umlLifeline;portConstraint=eastwest;newEdgeStyle={&quot;curved&quot;:0,&quot;rounded&quot;:0};" vertex="1" parent="CESZngJtCbdqiEpLdhRZ-29">
          <mxGeometry x="55" y="480" width="10" height="80" as="geometry" />
        </mxCell>
        <mxCell id="CESZngJtCbdqiEpLdhRZ-52" value="填写活动信息" style="html=1;verticalAlign=bottom;endArrow=block;curved=0;rounded=0;entryX=0;entryY=0;entryDx=0;entryDy=5;" edge="1" target="CESZngJtCbdqiEpLdhRZ-51" parent="1" source="CESZngJtCbdqiEpLdhRZ-50">
          <mxGeometry relative="1" as="geometry">
            <mxPoint x="185" y="175" as="sourcePoint" />
          </mxGeometry>
        </mxCell>
        <mxCell id="CESZngJtCbdqiEpLdhRZ-53" value="返回活动创建成功" style="html=1;verticalAlign=bottom;endArrow=open;dashed=1;endSize=8;curved=0;rounded=0;exitX=0;exitY=1;exitDx=0;exitDy=-5;" edge="1" source="CESZngJtCbdqiEpLdhRZ-51" parent="1" target="CESZngJtCbdqiEpLdhRZ-50">
          <mxGeometry relative="1" as="geometry">
            <mxPoint x="185" y="245" as="targetPoint" />
          </mxGeometry>
        </mxCell>
        <mxCell id="CESZngJtCbdqiEpLdhRZ-55" value="将活动信息提交到信息处理系统" style="html=1;verticalAlign=bottom;endArrow=block;curved=0;rounded=0;entryX=0;entryY=0;entryDx=0;entryDy=5;" edge="1" target="CESZngJtCbdqiEpLdhRZ-54" parent="1" source="CESZngJtCbdqiEpLdhRZ-51">
          <mxGeometry relative="1" as="geometry">
            <mxPoint x="340" y="215" as="sourcePoint" />
          </mxGeometry>
        </mxCell>
        <mxCell id="CESZngJtCbdqiEpLdhRZ-56" value="返回活动创建成功" style="html=1;verticalAlign=bottom;endArrow=open;dashed=1;endSize=8;curved=0;rounded=0;exitX=0;exitY=1;exitDx=0;exitDy=-5;" edge="1" source="CESZngJtCbdqiEpLdhRZ-54" parent="1" target="CESZngJtCbdqiEpLdhRZ-51">
          <mxGeometry relative="1" as="geometry">
            <mxPoint x="340" y="285" as="targetPoint" />
          </mxGeometry>
        </mxCell>
        <mxCell id="CESZngJtCbdqiEpLdhRZ-58" value="将活动数据提交到活动处理系统" style="html=1;verticalAlign=bottom;endArrow=block;curved=0;rounded=0;entryX=0;entryY=0;entryDx=0;entryDy=5;" edge="1" target="CESZngJtCbdqiEpLdhRZ-57" parent="1" source="CESZngJtCbdqiEpLdhRZ-54">
          <mxGeometry relative="1" as="geometry">
            <mxPoint x="505" y="245" as="sourcePoint" />
          </mxGeometry>
        </mxCell>
        <mxCell id="CESZngJtCbdqiEpLdhRZ-59" value="返回活动创建成功" style="html=1;verticalAlign=bottom;endArrow=open;dashed=1;endSize=8;curved=0;rounded=0;exitX=0;exitY=1;exitDx=0;exitDy=-5;" edge="1" source="CESZngJtCbdqiEpLdhRZ-57" parent="1" target="CESZngJtCbdqiEpLdhRZ-54">
          <mxGeometry relative="1" as="geometry">
            <mxPoint x="505" y="315" as="targetPoint" />
          </mxGeometry>
        </mxCell>
        <mxCell id="CESZngJtCbdqiEpLdhRZ-64" value="创建活动" style="html=1;verticalAlign=bottom;endArrow=block;curved=0;rounded=0;entryX=0;entryY=0;entryDx=0;entryDy=5;" edge="1" target="CESZngJtCbdqiEpLdhRZ-63" parent="1" source="CESZngJtCbdqiEpLdhRZ-57">
          <mxGeometry relative="1" as="geometry">
            <mxPoint x="665" y="295" as="sourcePoint" />
          </mxGeometry>
        </mxCell>
        <mxCell id="CESZngJtCbdqiEpLdhRZ-65" value="返回活动创建成功" style="html=1;verticalAlign=bottom;endArrow=open;dashed=1;endSize=8;curved=0;rounded=0;exitX=0;exitY=1;exitDx=0;exitDy=-5;" edge="1" source="CESZngJtCbdqiEpLdhRZ-63" parent="1" target="CESZngJtCbdqiEpLdhRZ-57">
          <mxGeometry relative="1" as="geometry">
            <mxPoint x="665" y="365" as="targetPoint" />
          </mxGeometry>
        </mxCell>
        <mxCell id="CESZngJtCbdqiEpLdhRZ-67" value="添加活动到活动表" style="html=1;verticalAlign=bottom;endArrow=block;curved=0;rounded=0;entryX=0;entryY=0;entryDx=0;entryDy=5;" edge="1" target="CESZngJtCbdqiEpLdhRZ-66" parent="1" source="CESZngJtCbdqiEpLdhRZ-57">
          <mxGeometry relative="1" as="geometry">
            <mxPoint x="825" y="445" as="sourcePoint" />
          </mxGeometry>
        </mxCell>
        <mxCell id="CESZngJtCbdqiEpLdhRZ-68" value="返回活动添加成功" style="html=1;verticalAlign=bottom;endArrow=open;dashed=1;endSize=8;curved=0;rounded=0;exitX=0;exitY=1;exitDx=0;exitDy=-5;" edge="1" source="CESZngJtCbdqiEpLdhRZ-66" parent="1" target="CESZngJtCbdqiEpLdhRZ-57">
          <mxGeometry relative="1" as="geometry">
            <mxPoint x="825" y="515" as="targetPoint" />
          </mxGeometry>
        </mxCell>
      </root>
    </mxGraphModel>
  </diagram>
</mxfile>
